<svg xmlns="http://www.w3.org/2000/svg" viewBox="0 0 27 27" fill="none"><rect x="0" y="0" width="27" height="27" fill="currentColor" opacity="0.85"></rect><path stroke="currentColor" stroke-opacity="0.6" stroke-width="1" stroke-linecap="round" d="M10.8018 12.506C10.8018 12.506 10.8018 17.2806 10.8018 18.8983C10.8018 19.0428 10.8018 18.9167 10.8018 19.2425C10.8018 20.5774 9.45176 21.6185 8.10176 21.6185C6.75176 21.6185 5.73926 20.606 5.73926 19.256C5.73926 17.906 7.08926 16.8935 8.10176 16.8935C9.11426 16.8935 9.45176 17.5685 9.45176 16.8935C9.45176 16.2185 9.45176 8.79354 9.45176 8.45604C9.45176 8.11854 14.1768 12.506 14.5143 12.506C14.8518 12.506 18.5643 8.79354 18.5643 9.13104C18.5643 9.46854 18.5643 17.906 18.5643 17.906"></path><path stroke="currentColor" stroke-opacity="0.6" stroke-width="1" stroke-linecap="round" d="M4.34201 16.2198C4.15132 15.4573 4.05176 14.6587 4.05176 13.8371C4.05176 8.43157 8.43377 4.04956 13.8393 4.04956C19.2447 4.04956 23.6268 8.43157 23.6268 13.8371C23.6268 19.2425 19.2447 23.6245 13.8393 23.6245C12.652 23.6245 11.5173 23.4109 10.4643 23.0238"></path></svg>