<svg xmlns="http://www.w3.org/2000/svg" xmlns:xlink="http://www.w3.org/1999/xlink" width="256.8082275390625" height="262.1101837158203" viewBox="0 0 256.8082275390625 262.1101837158203" fill="none"><path    stroke="rgba(0, 0, 0, 1.00)" stroke-width="15"  stroke-linecap="round"  d="M130.815 7.50002C125.342 21.5511 127.168 34.5782 127.699 49.4122C128.388 68.6741 128.973 87.8147 130.372 107.043"></path><path    stroke="rgba(0, 0, 0, 1.00)" stroke-width="15"  stroke-linecap="round"  d="M129.241 141.536C125.233 160.834 127.036 179.644 128.705 199.156C130.29 217.685 132.515 236.145 134.703 254.61"></path><path    stroke="rgba(0, 0, 0, 1.00)" stroke-width="15"  stroke-linecap="round"  d="M7.5 146.063C19.7952 140.592 31.3862 140.37 44.6192 139.472C64.6402 138.113 83.928 135.527 103.603 131.695"></path><path    stroke="rgba(0, 0, 0, 1.00)" stroke-width="15"  stroke-linecap="round"  d="M148.137 126.036C182.133 123.859 215.596 118.215 249.308 113.538"></path><path    stroke="rgba(0, 0, 0, 1.00)" stroke-width="15"  stroke-linecap="round"  d="M154.478 109.435L165.375 89.6666"></path><path    stroke="rgba(0, 0, 0, 1.00)" stroke-width="15"  stroke-linecap="round"  d="M104.587 157.3L91.3554 170.375"></path><path    stroke="rgba(0, 0, 0, 1.00)" stroke-width="15"  stroke-linecap="round"  d="M164.518 152.163L177.672 161.036"></path><path    stroke="rgba(0, 0, 0, 1.00)" stroke-width="15"  stroke-linecap="round"  d="M100.228 97.8385C85.9756 93.5251 73.2932 87.1898 59.7551 81.1053"></path></svg>